<svg xmlns="http://www.w3.org/2000/svg" direction="ltr" width="355" height="316" viewBox="4005 342 355 316" stroke-linecap="round" stroke-linejoin="round" data-color-mode="light" class="tl-container tl-theme__force-sRGB tl-theme__light" style="background-color: transparent;"><defs/><g transform="matrix(1, 0, 0, 1, 4005, 342)" opacity="1"><g data-lovart-layer-name="SVG 3"><g transform="scale(1, 1)"><g>
<g xmlns="http://www.w3.org/2000/svg" stroke-width="2.00" fill="none" stroke-linecap="butt">
<path stroke="#91b75c" vector-effect="non-scaling-stroke" d="   M 64.28 187.59   Q 53.33 192.77 41.32 195.04"/>
<path stroke="#74a569" vector-effect="non-scaling-stroke" d="   M 41.32 195.04   Q 37.96 189.46 35.45 183.35   C 32.19 175.40 29.31 167.34 27.59 159.02   Q 23.72 140.36 24.57 121.13"/>
<path stroke="#82b15d" vector-effect="non-scaling-stroke" d="   M 24.57 121.13   C 24.95 115.58 25.93 111.18 27.74 101.98   Q 29.22 94.44 31.54 88.25   Q 37.31 72.89 44.33 60.75   C 46.56 56.90 48.77 54.15 51.64 50.14   Q 55.47 44.79 61.59 39.24   Q 64.28 36.80 65.88 34.67   Q 67.76 32.18 69.45 29.51"/>
<path stroke="#6da45c" vector-effect="non-scaling-stroke" d="   M 99.12 228.03   L 78.31 238.10"/>
<path stroke="#509269" vector-effect="non-scaling-stroke" d="   M 24.57 121.13   Q 18.91 112.70 11.60 105.19"/>
<path stroke="#5f9868" vector-effect="non-scaling-stroke" d="   M 41.32 195.04   Q 50.20 209.21 60.79 221.97   Q 64.24 226.12 65.38 227.13   Q 71.82 232.85 78.31 238.10"/>
<path stroke="#509269" vector-effect="non-scaling-stroke" d="   M 78.31 238.10   Q 85.06 242.82 91.85 247.13   C 95.72 249.59 99.85 251.07 103.47 253.31   Q 106.89 255.42 111.69 257.27   Q 118.97 260.06 120.25 260.41   C 140.04 265.78 159.88 266.03 179.45 263.18   Q 191.20 261.46 195.18 259.88   Q 201.48 257.37 211.86 253.13   Q 214.51 252.05 220.62 246.53   A 23.06 22.31 6.2 0 1 223.19 244.53   Q 229.52 240.34 237.80 235.37   A 0.73 0.73 0.0 0 0 237.91 234.20   Q 237.72 234.03 237.29 234.19"/>
<path stroke="#62a89b" vector-effect="non-scaling-stroke" d="   M 180.67 289.26   Q 189.40 289.03 197.21 286.91   Q 208.18 283.95 220.02 278.80   Q 227.17 275.70 234.59 270.04"/>
<path stroke="#5f9868" vector-effect="non-scaling-stroke" d="   M 315.62 123.19   L 318.01 150.17   A 3.24 3.02 49.3 0 1 317.98 150.92   Q 317.26 155.45 316.99 164.63   Q 316.84 169.85 314.97 179.28   A 19.60 18.86 -39.8 0 0 314.61 182.54   C 314.49 187.34 313.06 190.81 312.17 194.63   A 0.76 0.74 20.4 0 0 312.56 195.46   Q 321.08 199.80 330.56 201.98"/>
<path stroke="#91b75c" vector-effect="non-scaling-stroke" d="   M 352.66 135.44   L 315.62 123.19"/>
<path stroke="#74a569" vector-effect="non-scaling-stroke" d="   M 315.62 123.19   Q 314.88 116.19 310.61 113.77"/>
<path stroke="#91b75c" vector-effect="non-scaling-stroke" d="   M 304.41 102.67   L 266.92 83.89   A 0.61 0.59 -57.2 0 0 266.17 84.06   Q 262.58 88.76 261.25 91.97   Q 257.93 100.01 253.66 107.28"/>
<path stroke="#6da45c" vector-effect="non-scaling-stroke" d="   M 294.91 168.07   L 248.82 148.70"/>
<path stroke="#6dbab5" vector-effect="non-scaling-stroke" d="   M 167.89 37.03   Q 167.27 38.51 167.41 40.43   Q 167.62 43.42 167.62 43.59   Q 167.52 50.81 167.02 60.08   Q 166.67 66.52 164.33 76.29   C 162.87 82.39 160.43 92.24 159.37 100.31   Q 158.29 108.53 158.49 112.52   Q 159.36 129.58 167.48 145.10   C 171.33 152.46 177.23 159.08 183.90 163.17   Q 188.09 165.74 190.97 166.26   Q 198.90 167.70 206.56 165.30   A 0.91 0.90 -33.8 0 1 207.39 165.46   L 228.69 183.33"/>
<path stroke="#529da6" vector-effect="non-scaling-stroke" d="   M 154.62 229.10   Q 151.27 219.87 149.45 210.14"/>
<path stroke="#529da6" vector-effect="non-scaling-stroke" d="   M 130.13 129.22   L 122.00 115.79   A 0.30 0.29 -45.9 0 0 121.49 115.80   Q 116.58 124.55 110.24 132.42"/>
<path stroke="#93c78f" vector-effect="non-scaling-stroke" d="   M 304.2896 87.7733   A 2.98 0.48 -92.7 0 0 303.9505 90.7726   A 2.98 0.48 -92.7 0 0 304.5704 93.7267   A 2.98 0.48 -92.7 0 0 304.9095 90.7274   A 2.98 0.48 -92.7 0 0 304.2896 87.7733"/>
</g>
<path xmlns="http://www.w3.org/2000/svg" fill="#a5c45d" d="   M 64.28 187.59   Q 53.33 192.77 41.32 195.04   Q 37.96 189.46 35.45 183.35   C 32.19 175.40 29.31 167.34 27.59 159.02   Q 23.72 140.36 24.57 121.13   C 24.95 115.58 25.93 111.18 27.74 101.98   Q 29.22 94.44 31.54 88.25   Q 37.31 72.89 44.33 60.75   C 46.56 56.90 48.77 54.15 51.64 50.14   Q 55.47 44.79 61.59 39.24   Q 64.28 36.80 65.88 34.67   Q 67.76 32.18 69.45 29.51   C 92.13 13.88 120.88 3.64 149.28 3.12   Q 158.06 2.95 166.78 3.42   A 0.22 0.22 0.0 0 1 166.82 3.85   Q 151.33 7.10 146.94 7.95   Q 116.57 13.85 91.71 35.18   C 74.76 49.73 62.42 67.09 56.01 88.03   Q 51.77 101.88 50.61 112.03   Q 49.46 122.08 50.19 139.87   Q 50.33 143.05 51.44 148.35   Q 51.47 148.49 52.88 156.82   Q 55.36 171.39 64.28 187.59   Z"/>
<path xmlns="http://www.w3.org/2000/svg" fill="#a5c45d" d="   M 352.66 135.44   L 315.62 123.19   Q 314.88 116.19 310.61 113.77   Q 308.60 104.99 306.38 96.41   Q 306.14 95.49 305.51 94.92   A 0.28 0.28 0.0 0 0 305.04 95.11   L 304.41 102.67   L 266.92 83.89   A 0.61 0.59 -57.2 0 0 266.17 84.06   Q 262.58 88.76 261.25 91.97   Q 257.93 100.01 253.66 107.28   Q 263.49 79.18 284.65 59.11   C 297.25 47.16 312.70 38.00 328.94 30.20   Q 332.62 28.43 337.87 27.88   A 0.36 0.36 0.0 0 1 338.25 28.35   Q 337.40 30.99 335.89 37.56   C 333.13 49.55 334.34 62.14 337.20 75.42   Q 337.99 79.11 342.87 93.94   Q 347.11 106.81 350.60 120.59   Q 352.46 127.98 352.66 135.44   Z   M 304.2896 87.7733   A 2.98 0.48 -92.7 0 0 303.9505 90.7726   A 2.98 0.48 -92.7 0 0 304.5704 93.7267   A 2.98 0.48 -92.7 0 0 304.9095 90.7274   A 2.98 0.48 -92.7 0 0 304.2896 87.7733   Z"/>
<path xmlns="http://www.w3.org/2000/svg" fill="#5e9e5d" d="   M 69.45 29.51   Q 67.76 32.18 65.88 34.67   Q 64.28 36.80 61.59 39.24   Q 55.47 44.79 51.64 50.14   C 48.77 54.15 46.56 56.90 44.33 60.75   Q 37.31 72.89 31.54 88.25   Q 29.22 94.44 27.74 101.98   C 25.93 111.18 24.95 115.58 24.57 121.13   Q 18.91 112.70 11.60 105.19   Q 26.34 64.42 60.49 36.24   Q 65.95 31.74 69.45 29.51   Z"/>
<path xmlns="http://www.w3.org/2000/svg" fill="#58aaaa" d="   M 167.89 37.03   Q 167.27 38.51 167.41 40.43   Q 167.62 43.42 167.62 43.59   Q 167.52 50.81 167.02 60.08   Q 166.67 66.52 164.33 76.29   C 162.87 82.39 160.43 92.24 159.37 100.31   Q 158.29 108.53 158.49 112.52   Q 159.36 129.58 167.48 145.10   C 171.33 152.46 177.23 159.08 183.90 163.17   Q 188.09 165.74 190.97 166.26   Q 198.90 167.70 206.56 165.30   A 0.91 0.90 -33.8 0 1 207.39 165.46   L 228.69 183.33   Q 225.43 196.66 214.80 209.05   Q 201.13 224.98 178.75 229.00   Q 165.23 231.43 154.62 229.10   Q 151.27 219.87 149.45 210.14   C 156.97 212.72 166.50 214.82 174.87 212.71   Q 180.51 211.29 187.43 208.96   Q 188.76 208.51 189.57 207.50   A 0.57 0.57 0.0 0 0 189.09 206.58   Q 176.73 207.44 165.34 203.35   Q 153.04 198.94 145.22 190.37   C 134.14 178.21 130.44 163.52 132.12 146.75   Q 133.46 133.31 138.48 122.41   Q 139.49 120.21 140.68 118.16   A 0.57 0.57 0.0 0 0 139.82 117.44   L 135.93 120.75   A 1.59 1.46 -5.6 0 0 135.67 121.04   L 130.13 129.22   L 122.00 115.79   A 0.30 0.29 -45.9 0 0 121.49 115.80   Q 116.58 124.55 110.24 132.42   Q 115.60 122.06 119.33 116.82   C 131.07 100.35 143.06 82.78 153.14 64.17   C 158.59 54.11 162.83 43.76 166.62 33.67   A 0.27 0.27 0.0 0 1 167.13 33.71   L 167.89 37.03   Z"/>
<path xmlns="http://www.w3.org/2000/svg" fill="#81c9c0" d="   M 167.89 37.03   Q 175.74 55.81 178.32 60.91   Q 187.83 79.75 196.52 92.51   Q 206.09 106.53 215.73 120.49   Q 227.96 138.22 230.44 157.56   Q 231.97 169.57 228.69 183.33   L 207.39 165.46   A 0.91 0.90 -33.8 0 0 206.56 165.30   Q 198.90 167.70 190.97 166.26   Q 188.09 165.74 183.90 163.17   C 177.23 159.08 171.33 152.46 167.48 145.10   Q 159.36 129.58 158.49 112.52   Q 158.29 108.53 159.37 100.31   C 160.43 92.24 162.87 82.39 164.33 76.29   Q 166.67 66.52 167.02 60.08   Q 167.52 50.81 167.62 43.59   Q 167.62 43.42 167.41 40.43   Q 167.27 38.51 167.89 37.03   Z"/>
<path xmlns="http://www.w3.org/2000/svg" fill="#7ca95a" d="   M 304.41 102.67   Q 304.25 115.55 303.32 128.33   C 302.82 135.18 300.80 142.59 299.93 149.88   Q 299.31 155.08 294.91 168.07   L 248.82 148.70   Q 247.35 127.57 253.66 107.28   Q 257.93 100.01 261.25 91.97   Q 262.58 88.76 266.17 84.06   A 0.61 0.59 -57.2 0 1 266.92 83.89   L 304.41 102.67   Z"/>
<ellipse xmlns="http://www.w3.org/2000/svg" fill="#81c9c0" cx="0.00" cy="0.00" transform="translate(304.43,90.75) rotate(-92.7)" rx="2.98" ry="0.48"/>
<path xmlns="http://www.w3.org/2000/svg" fill="#428675" d="   M 24.57 121.13   Q 23.72 140.36 27.59 159.02   C 29.31 167.34 32.19 175.40 35.45 183.35   Q 37.96 189.46 41.32 195.04   Q 50.20 209.21 60.79 221.97   Q 64.24 226.12 65.38 227.13   Q 71.82 232.85 78.31 238.10   Q 85.06 242.82 91.85 247.13   C 95.72 249.59 99.85 251.07 103.47 253.31   Q 106.89 255.42 111.69 257.27   Q 118.97 260.06 120.25 260.41   C 140.04 265.78 159.88 266.03 179.45 263.18   Q 191.20 261.46 195.18 259.88   Q 201.48 257.37 211.86 253.13   Q 214.51 252.05 220.62 246.53   A 23.06 22.31 6.2 0 1 223.19 244.53   Q 229.52 240.34 237.80 235.37   A 0.73 0.73 0.0 0 0 237.91 234.20   Q 237.72 234.03 237.29 234.19   Q 242.36 231.12 243.93 229.68   Q 247.16 226.71 250.50 224.32   A 0.40 0.40 0.0 0 1 251.04 224.90   Q 248.46 228.01 246.27 231.03   Q 240.76 238.64 231.85 246.47   C 219.93 256.95 206.99 265.37 191.87 271.12   Q 188.22 272.51 178.12 275.40   Q 170.70 277.52 164.01 278.08   Q 143.17 279.85 127.07 277.82   Q 119.08 276.81 108.60 273.64   Q 96.84 270.08 89.51 265.49   A 5.37 4.97 67.8 0 0 88.31 264.93   L 85.18 263.91   A 0.53 0.53 0.0 0 0 84.66 264.81   Q 86.73 266.69 88.57 267.93   Q 105.63 279.47 125.47 285.78   C 142.54 291.21 162.44 291.49 180.67 289.26   Q 189.40 289.03 197.21 286.91   Q 208.18 283.95 220.02 278.80   Q 227.17 275.70 234.59 270.04   Q 253.11 258.18 267.04 243.53   Q 288.71 220.75 300.81 189.74   Q 302.61 185.13 303.58 180.87   C 304.56 176.55 305.97 173.40 306.75 168.90   Q 307.83 162.69 309.40 155.53   C 310.28 151.52 310.50 147.05 310.80 143.25   Q 311.29 136.94 310.61 113.77   Q 314.88 116.19 315.62 123.19   L 318.01 150.17   A 3.24 3.02 49.3 0 1 317.98 150.92   Q 317.26 155.45 316.99 164.63   Q 316.84 169.85 314.97 179.28   A 19.60 18.86 -39.8 0 0 314.61 182.54   C 314.49 187.34 313.06 190.81 312.17 194.63   A 0.76 0.74 20.4 0 0 312.56 195.46   Q 321.08 199.80 330.56 201.98   Q 322.08 210.16 317.37 213.13   Q 311.53 216.82 304.22 220.71   C 301.82 221.98 300.01 223.92 298.58 226.41   Q 290.63 240.28 286.47 245.72   C 278.52 256.13 268.77 267.63 258.17 276.44   Q 231.31 298.77 198.12 307.83   Q 195.76 308.47 181.22 311.20   C 172.39 312.86 162.86 312.72 154.88 312.76   Q 133.99 312.89 112.80 306.59   C 81.28 297.22 52.35 275.17 33.19 248.79   Q 21.93 233.27 12.28 209.76   C 10.54 205.52 9.58 201.18 8.13 196.68   Q 7.63 195.11 6.96 191.31   Q 3.79 173.21 3.60 170.77   C 2.83 160.73 2.29 149.05 4.03 137.65   Q 5.94 125.16 6.27 123.52   Q 7.71 116.51 11.60 105.19   Q 18.91 112.70 24.57 121.13   Z"/>
<path xmlns="http://www.w3.org/2000/svg" fill="#4c90a1" d="   M 130.13 129.22   L 123.40 142.00   A 6.09 5.70 -26.0 0 0 122.95 143.18   C 120.35 153.61 117.38 161.55 119.72 172.59   Q 121.48 180.91 123.46 185.28   Q 131.44 202.81 149.45 210.14   Q 151.27 219.87 154.62 229.10   C 143.78 228.01 131.81 221.51 123.93 214.46   C 106.64 199.01 99.53 174.45 103.62 151.96   Q 105.26 142.92 110.24 132.42   Q 116.58 124.55 121.49 115.80   A 0.30 0.29 -45.9 0 1 122.00 115.79   L 130.13 129.22   Z"/>
<path xmlns="http://www.w3.org/2000/svg" fill="#7ca95a" d="   M 352.66 135.44   C 354.24 150.03 352.70 164.76 346.77 178.17   Q 342.80 187.16 336.87 195.11   Q 334.01 198.95 330.56 201.98   Q 321.08 199.80 312.56 195.46   A 0.76 0.74 20.4 0 1 312.17 194.63   C 313.06 190.81 314.49 187.34 314.61 182.54   A 19.60 18.86 -39.8 0 1 314.97 179.28   Q 316.84 169.85 316.99 164.63   Q 317.26 155.45 317.98 150.92   A 3.24 3.02 49.3 0 0 318.01 150.17   L 315.62 123.19   L 352.66 135.44   Z"/>
<path xmlns="http://www.w3.org/2000/svg" fill="#5e9e5d" d="   M 294.91 168.07   Q 289.05 186.97 278.81 204.25   Q 276.92 207.44 273.33 211.38   A 0.75 0.75 0.0 0 1 272.19 211.34   C 265.63 203.06 262.01 194.63 257.73 183.96   C 252.98 172.13 250.18 161.58 248.82 148.70   L 294.91 168.07   Z"/>
<path xmlns="http://www.w3.org/2000/svg" fill="#7ca95a" d="   M 64.28 187.59   Q 77.03 211.69 99.12 228.03   L 78.31 238.10   Q 71.82 232.85 65.38 227.13   Q 64.24 226.12 60.79 221.97   Q 50.20 209.21 41.32 195.04   Q 53.33 192.77 64.28 187.59   Z"/>
<path xmlns="http://www.w3.org/2000/svg" fill="#5e9e5d" d="   M 237.29 234.19   Q 237.72 234.03 237.91 234.20   A 0.73 0.73 0.0 0 1 237.80 235.37   Q 229.52 240.34 223.19 244.53   A 23.06 22.31 6.2 0 0 220.62 246.53   Q 214.51 252.05 211.86 253.13   Q 201.48 257.37 195.18 259.88   Q 191.20 261.46 179.45 263.18   C 159.88 266.03 140.04 265.78 120.25 260.41   Q 118.97 260.06 111.69 257.27   Q 106.89 255.42 103.47 253.31   C 99.85 251.07 95.72 249.59 91.85 247.13   Q 85.06 242.82 78.31 238.10   L 99.12 228.03   C 111.48 237.25 122.80 243.14 137.13 247.92   Q 146.95 251.19 156.38 252.10   Q 178.02 254.18 196.96 250.58   Q 207.51 248.57 219.47 243.36   C 224.92 240.98 231.31 237.18 237.29 234.19   Z"/>
<path xmlns="http://www.w3.org/2000/svg" fill="#81c9c0" d="   M 234.59 270.04   Q 227.17 275.70 220.02 278.80   Q 208.18 283.95 197.21 286.91   Q 189.40 289.03 180.67 289.26   Q 209.49 285.02 234.59 270.04   Z"/>
</g></g></g></g></svg>