<svg xmlns="http://www.w3.org/2000/svg" direction="ltr" width="1080" height="589" viewBox="4413 246.5 1080 589" stroke-linecap="round" stroke-linejoin="round" data-color-mode="light" class="tl-container tl-theme__force-sRGB tl-theme__light" style="background-color: transparent;"><defs/><g transform="matrix(1, 0, 0, 1, 4413, 246.5)" opacity="1"><g data-lovart-layer-name="SVG 2"><g transform="scale(1, 1)"><g>
<g xmlns="http://www.w3.org/2000/svg" stroke-width="2.00" fill="none" stroke-linecap="butt">
<path stroke="#8cb35b" vector-effect="non-scaling-stroke" d="   M 382.96 286.72   L 358.88 292.07"/>
<path stroke="#6fa367" vector-effect="non-scaling-stroke" d="   M 358.88 292.07   C 352.74 281.44 348.90 271.17 345.42 259.01"/>
<path stroke="#7fac5c" vector-effect="non-scaling-stroke" d="   M 345.42 259.01   C 344.10 251.16 342.16 242.40 341.81 235.24   Q 341.37 226.05 341.81 216.17   C 342.06 210.62 343.70 205.38 344.33 200.53   Q 345.01 195.25 347.08 189.00   Q 353.90 168.29 363.78 153.02   Q 370.60 142.48 380.61 133.13   Q 382.65 131.23 384.71 126.79"/>
<path stroke="#539266" vector-effect="non-scaling-stroke" d="   M 345.42 259.01   Q 332.56 254.89 319.94 248.72"/>
<path stroke="#70a35a" vector-effect="non-scaling-stroke" d="   M 422.33 328.68   L 399.20 337.00"/>
<path stroke="#609a65" vector-effect="non-scaling-stroke" d="   M 358.88 292.07   Q 368.84 307.68 377.04 317.46   Q 385.80 327.90 399.20 337.00"/>
<path stroke="#539266" vector-effect="non-scaling-stroke" d="   M 399.20 337.00   Q 403.99 340.39 408.95 343.50   C 412.77 345.89 416.84 347.34 420.10 349.35   Q 423.64 351.53 428.41 353.36   Q 436.41 356.43 437.09 356.62   Q 441.87 357.91 453.03 360.07   Q 460.17 361.45 469.22 361.23   Q 484.82 360.84 501.46 358.50   C 510.83 357.18 521.31 353.18 528.49 349.74   C 531.23 348.43 534.49 346.16 534.40 342.85   A 0.39 0.38 -10.1 0 0 533.89 342.50   Q 527.60 344.67 521.07 345.39"/>
<path stroke="#41867c" vector-effect="non-scaling-stroke" d="   M 401.76 361.20   Q 391.12 354.17 382.75 352.26   C 370.65 349.50 359.62 348.13 347.91 341.60"/>
<path stroke="#609a65" vector-effect="non-scaling-stroke" d="   M 631.41 215.19   L 633.07 221.39   A 2.45 2.02 39.5 0 1 633.14 221.75   L 635.06 243.35   A 17.34 17.10 -44.6 0 1 635.01 246.91   C 634.03 255.41 634.36 265.69 632.39 273.72   C 631.33 278.02 632.10 281.87 630.58 285.88   A 0.60 0.60 0.0 0 0 630.97 286.67   L 652.50 292.98"/>
<path stroke="#41867c" vector-effect="non-scaling-stroke" d="   M 596.77 350.33   Q 593.00 353.09 589.54 356.31   Q 588.57 357.22 582.41 359.79   A 21.97 21.97 0.0 0 0 579.61 361.19   C 575.58 363.55 569.97 368.38 565.62 370.52   C 550.35 378.05 534.13 383.47 517.66 386.69   C 509.77 388.23 503.53 388.03 494.17 386.90   Q 494.03 386.88 494.15 386.88   C 495.84 386.80 496.75 386.59 497.25 386.62   A 2.74 2.68 -51.7 0 0 498.25 386.49   Q 500.62 385.70 505.52 384.99   Q 511.19 384.17 512.81 383.63   C 516.53 382.38 519.45 381.97 523.28 380.57   Q 530.29 378.00 533.15 376.87   C 537.88 375.01 540.68 373.20 545.94 370.40   Q 558.60 363.66 571.14 352.88   Q 574.15 350.30 576.55 347.28"/>
<path stroke="#8cb35b" vector-effect="non-scaling-stroke" d="   M 669.35 226.01   Q 649.91 221.86 631.41 215.19"/>
<path stroke="#6fa367" vector-effect="non-scaling-stroke" d="   M 631.41 215.19   C 630.67 210.93 629.57 206.11 626.27 203.31"/>
<path stroke="#8cb35b" vector-effect="non-scaling-stroke" d="   M 621.26 209.03   Q 599.32 199.65 578.57 188.37   A 0.42 0.42 0.0 0 0 577.97 188.60   Q 576.18 193.96 572.70 198.26"/>
<path stroke="#8ec38e" vector-effect="non-scaling-stroke" d="   M 595.04 162.30   Q 600.71 158.86 604.23 153.13"/>
<path stroke="#70a35a" vector-effect="non-scaling-stroke" d="   M 615.99 250.17   L 567.86 231.81   A 0.37 0.37 0.0 0 0 567.35 232.11   L 565.84 244.32"/>
<path stroke="#6dbab5" vector-effect="non-scaling-stroke" d="   M 485.78 135.11   Q 484.58 135.04 484.63 136.25   C 485.06 147.55 484.51 159.04 481.91 170.14   C 479.00 182.55 475.72 194.63 475.77 207.00   C 475.86 226.19 484.57 250.85 502.77 260.37   Q 512.63 265.53 523.63 261.28   A 1.08 1.08 0.0 0 1 524.67 261.42   L 546.09 277.87"/>
<path stroke="#529ea6" vector-effect="non-scaling-stroke" d="   M 494.07 325.64   Q 490.85 317.97 490.17 309.42"/>
<path stroke="#529ea6" vector-effect="non-scaling-stroke" d="   M 446.24 226.98   L 436.09 216.85   A 0.42 0.42 0.0 0 0 435.43 216.93   Q 434.86 217.84 430.24 224.92   Q 427.47 229.16 426.02 233.47   Q 422.07 245.13 421.66 248.04   Q 421.20 251.32 420.81 252.39   A 2.19 2.13 53.7 0 0 420.69 253.26   Q 420.89 256.99 419.60 260.25"/>
<path stroke="#8ec38e" vector-effect="non-scaling-stroke" d="   M 621.81 188.93   Q 621.94 185.68 621.53 184.30   A 0.28 0.28 0.0 0 0 620.98 184.38   Q 620.99 187.44 621.47 188.97   A 0.17 0.17 0.0 0 0 621.81 188.93"/>
</g>
<path xmlns="http://www.w3.org/2000/svg" fill="#9bbc5c" d="   M 382.96 286.72   L 358.88 292.07   C 352.74 281.44 348.90 271.17 345.42 259.01   C 344.10 251.16 342.16 242.40 341.81 235.24   Q 341.37 226.05 341.81 216.17   C 342.06 210.62 343.70 205.38 344.33 200.53   Q 345.01 195.25 347.08 189.00   Q 353.90 168.29 363.78 153.02   Q 370.60 142.48 380.61 133.13   Q 382.65 131.23 384.71 126.79   C 407.25 110.84 435.12 100.45 462.76 99.28   Q 474.37 98.79 483.82 99.39   A 0.26 0.26 0.0 0 1 483.86 99.91   Q 478.47 101.05 463.77 103.99   Q 432.24 110.29 406.94 132.86   Q 391.24 146.87 382.16 163.02   Q 376.27 173.51 372.70 185.48   Q 368.62 199.17 367.61 209.32   Q 366.67 218.62 367.25 235.47   Q 367.36 238.79 368.48 244.13   Q 368.58 244.60 369.95 252.77   Q 372.70 269.07 382.96 286.72   Z"/>
<path xmlns="http://www.w3.org/2000/svg" fill="#9bbc5c" d="   M 669.35 226.01   Q 649.91 221.86 631.41 215.19   C 630.67 210.93 629.57 206.11 626.27 203.31   Q 624.88 199.39 624.19 195.27   Q 623.78 192.87 622.56 191.19   A 0.36 0.35 -62.1 0 0 621.92 191.39   L 621.26 209.03   Q 599.32 199.65 578.57 188.37   A 0.42 0.42 0.0 0 0 577.97 188.60   Q 576.18 193.96 572.70 198.26   Q 580.56 177.67 595.04 162.30   Q 600.71 158.86 604.23 153.13   Q 607.75 149.40 612.49 145.99   Q 628.50 134.48 645.97 126.23   Q 649.50 124.57 654.88 123.84   A 0.36 0.35 2.7 0 1 655.28 124.27   C 654.59 127.35 652.61 133.44 652.07 137.88   C 650.19 153.46 652.50 169.39 658.34 185.37   C 661.48 193.95 664.08 203.94 666.74 213.29   C 667.92 217.43 668.63 221.73 669.35 226.01   Z   M 621.81 188.93   Q 621.94 185.68 621.53 184.30   A 0.28 0.28 0.0 0 0 620.98 184.38   Q 620.99 187.44 621.47 188.97   A 0.17 0.17 0.0 0 0 621.81 188.93   Z"/>
<path xmlns="http://www.w3.org/2000/svg" fill="#639b5b" d="   M 384.71 126.79   Q 382.65 131.23 380.61 133.13   Q 370.60 142.48 363.78 153.02   Q 353.90 168.29 347.08 189.00   Q 345.01 195.25 344.33 200.53   C 343.70 205.38 342.06 210.62 341.81 216.17   Q 341.37 226.05 341.81 235.24   C 342.16 242.40 344.10 251.16 345.42 259.01   Q 332.56 254.89 319.94 248.72   Q 320.25 239.35 320.79 236.00   C 321.96 228.83 322.85 221.26 324.65 214.58   Q 339.20 160.36 384.71 126.79   Z"/>
<path xmlns="http://www.w3.org/2000/svg" fill="#58abaa" d="   M 485.78 135.11   Q 484.58 135.04 484.63 136.25   C 485.06 147.55 484.51 159.04 481.91 170.14   C 479.00 182.55 475.72 194.63 475.77 207.00   C 475.86 226.19 484.57 250.85 502.77 260.37   Q 512.63 265.53 523.63 261.28   A 1.08 1.08 0.0 0 1 524.67 261.42   L 546.09 277.87   Q 543.73 289.73 536.03 300.27   Q 520.19 321.94 494.07 325.64   Q 490.85 317.97 490.17 309.42   C 495.43 307.94 501.85 306.84 506.36 304.24   A 0.61 0.61 0.0 0 0 506.18 303.11   Q 505.52 302.97 504.99 302.99   Q 492.21 303.25 482.08 299.51   Q 470.13 295.10 462.65 287.00   Q 450.08 273.37 448.92 254.75   Q 447.83 237.33 455.34 218.73   C 456.00 217.10 457.83 215.77 457.64 213.68   A 0.33 0.32 -23.5 0 0 457.10 213.47   L 453.04 216.96   A 3.09 2.88 -5.0 0 0 452.49 217.57   L 446.24 226.98   L 436.09 216.85   A 0.42 0.42 0.0 0 0 435.43 216.93   Q 434.86 217.84 430.24 224.92   Q 427.47 229.16 426.02 233.47   Q 422.07 245.13 421.66 248.04   Q 421.20 251.32 420.81 252.39   A 2.19 2.13 53.7 0 0 420.69 253.26   Q 420.89 256.99 419.60 260.25   C 419.69 249.85 422.20 240.97 426.00 231.49   C 428.45 225.36 431.96 220.57 435.23 214.85   Q 436.45 212.72 439.79 208.11   Q 453.36 189.39 464.95 169.73   Q 476.01 150.97 483.64 129.84   A 0.32 0.32 0.0 0 1 484.24 129.86   L 485.78 135.11   Z"/>
<path xmlns="http://www.w3.org/2000/svg" fill="#81c9c0" d="   M 485.78 135.11   Q 487.15 137.65 488.26 140.38   Q 499.11 167.16 512.64 187.15   Q 522.91 202.32 533.27 217.43   Q 546.26 236.38 547.88 257.53   Q 548.56 266.31 546.09 277.87   L 524.67 261.42   A 1.08 1.08 0.0 0 0 523.63 261.28   Q 512.63 265.53 502.77 260.37   C 484.57 250.85 475.86 226.19 475.77 207.00   C 475.72 194.63 479.00 182.55 481.91 170.14   C 484.51 159.04 485.06 147.55 484.63 136.25   Q 484.58 135.04 485.78 135.11   Z"/>
<path xmlns="http://www.w3.org/2000/svg" fill="#81c9c0" d="   M 604.23 153.13   Q 600.71 158.86 595.04 162.30   Q 599.18 157.17 604.23 153.13   Z"/>
<path xmlns="http://www.w3.org/2000/svg" fill="#81c9c0" d="   M 621.47 188.97   Q 620.99 187.44 620.98 184.38   A 0.28 0.28 0.0 0 1 621.53 184.30   Q 621.94 185.68 621.81 188.93   A 0.17 0.17 0.0 0 1 621.47 188.97   Z"/>
<path xmlns="http://www.w3.org/2000/svg" fill="#7daa59" d="   M 621.26 209.03   Q 620.87 217.44 620.21 226.00   C 619.80 231.42 618.32 236.74 617.59 241.91   Q 617.00 246.01 615.99 250.17   L 567.86 231.81   A 0.37 0.37 0.0 0 0 567.35 232.11   L 565.84 244.32   Q 564.72 226.60 569.13 208.88   Q 570.63 202.84 572.70 198.26   Q 576.18 193.96 577.97 188.60   A 0.42 0.42 0.0 0 1 578.57 188.37   Q 599.32 199.65 621.26 209.03   Z"/>
<path xmlns="http://www.w3.org/2000/svg" fill="#438971" d="   M 631.41 215.19   L 633.07 221.39   A 2.45 2.02 39.5 0 1 633.14 221.75   L 635.06 243.35   A 17.34 17.10 -44.6 0 1 635.01 246.91   C 634.03 255.41 634.36 265.69 632.39 273.72   C 631.33 278.02 632.10 281.87 630.58 285.88   A 0.60 0.60 0.0 0 0 630.97 286.67   L 652.50 292.98   Q 651.38 294.57 649.20 296.70   Q 642.52 303.27 635.75 308.40   C 631.01 312.00 625.29 314.64 620.04 317.77   Q 617.97 319.01 616.47 321.46   Q 612.99 327.12 609.17 333.46   Q 603.74 342.47 596.77 350.33   Q 593.00 353.09 589.54 356.31   Q 588.57 357.22 582.41 359.79   A 21.97 21.97 0.0 0 0 579.61 361.19   C 575.58 363.55 569.97 368.38 565.62 370.52   C 550.35 378.05 534.13 383.47 517.66 386.69   C 509.77 388.23 503.53 388.03 494.17 386.90   Q 494.03 386.88 494.15 386.88   C 495.84 386.80 496.75 386.59 497.25 386.62   A 2.74 2.68 -51.7 0 0 498.25 386.49   Q 500.62 385.70 505.52 384.99   Q 511.19 384.17 512.81 383.63   C 516.53 382.38 519.45 381.97 523.28 380.57   Q 530.29 378.00 533.15 376.87   C 537.88 375.01 540.68 373.20 545.94 370.40   Q 558.60 363.66 571.14 352.88   Q 574.15 350.30 576.55 347.28   Q 604.91 320.82 618.44 284.22   Q 620.04 279.89 620.90 275.79   C 621.52 272.85 622.81 270.62 623.29 267.85   C 625.14 257.17 627.68 248.11 627.89 237.98   Q 628.05 230.04 627.78 217.75   Q 627.58 209.04 626.27 203.31   C 629.57 206.11 630.67 210.93 631.41 215.19   Z"/>
<path xmlns="http://www.w3.org/2000/svg" fill="#7daa59" d="   M 669.35 226.01   Q 670.05 233.76 670.16 241.50   Q 670.59 270.49 652.50 292.98   L 630.97 286.67   A 0.60 0.60 0.0 0 1 630.58 285.88   C 632.10 281.87 631.33 278.02 632.39 273.72   C 634.36 265.69 634.03 255.41 635.01 246.91   A 17.34 17.10 -44.6 0 0 635.06 243.35   L 633.14 221.75   A 2.45 2.02 39.5 0 0 633.07 221.39   L 631.41 215.19   Q 649.91 221.86 669.35 226.01   Z"/>
<path xmlns="http://www.w3.org/2000/svg" fill="#4c91a2" d="   M 446.24 226.98   Q 443.88 231.37 441.65 235.89   Q 440.29 238.66 439.62 241.22   Q 438.20 246.58 438.16 246.73   C 434.94 257.08 435.44 265.21 438.37 275.07   C 442.96 290.52 453.17 301.77 468.29 306.95   C 474.63 309.13 482.82 310.66 490.17 309.42   Q 490.85 317.97 494.07 325.64   Q 487.16 327.05 480.24 326.59   Q 446.72 324.38 429.56 296.91   Q 419.34 280.55 419.60 260.25   Q 420.89 256.99 420.69 253.26   A 2.19 2.13 53.7 0 1 420.81 252.39   Q 421.20 251.32 421.66 248.04   Q 422.07 245.13 426.02 233.47   Q 427.47 229.16 430.24 224.92   Q 434.86 217.84 435.43 216.93   A 0.42 0.42 0.0 0 1 436.09 216.85   L 446.24 226.98   Z"/>
<path xmlns="http://www.w3.org/2000/svg" fill="#639b5b" d="   M 615.99 250.17   Q 609.28 278.66 593.65 303.67   Q 592.09 306.18 590.25 307.67   A 0.78 0.77 51.2 0 1 589.15 307.55   C 582.20 298.67 578.16 289.12 573.65 277.58   Q 567.37 261.48 565.84 244.32   L 567.35 232.11   A 0.37 0.37 0.0 0 1 567.86 231.81   L 615.99 250.17   Z"/>
<path xmlns="http://www.w3.org/2000/svg" fill="#438971" d="   M 345.42 259.01   C 348.90 271.17 352.74 281.44 358.88 292.07   Q 368.84 307.68 377.04 317.46   Q 385.80 327.90 399.20 337.00   Q 403.99 340.39 408.95 343.50   C 412.77 345.89 416.84 347.34 420.10 349.35   Q 423.64 351.53 428.41 353.36   Q 436.41 356.43 437.09 356.62   Q 441.87 357.91 453.03 360.07   Q 460.17 361.45 469.22 361.23   Q 484.82 360.84 501.46 358.50   C 510.83 357.18 521.31 353.18 528.49 349.74   C 531.23 348.43 534.49 346.16 534.40 342.85   A 0.39 0.38 -10.1 0 0 533.89 342.50   Q 527.60 344.67 521.07 345.39   Q 534.06 341.38 540.73 337.74   Q 548.27 333.62 552.36 331.50   C 558.04 328.54 562.43 324.85 566.96 320.96   Q 567.49 320.50 567.99 320.53   A 0.24 0.23 19.4 0 1 568.17 320.90   C 552.32 343.97 525.96 363.87 499.18 370.55   C 493.04 372.08 489.11 373.65 482.27 374.31   Q 461.27 376.32 444.50 374.24   Q 431.49 372.62 414.86 366.15   Q 413.60 365.66 409.08 363.24   Q 405.92 361.55 403.03 360.57   Q 401.36 360.00 401.76 361.20   Q 391.12 354.17 382.75 352.26   C 370.65 349.50 359.62 348.13 347.91 341.60   Q 336.93 325.09 329.62 306.43   Q 324.96 294.51 323.23 282.77   C 322.25 276.13 320.91 270.47 320.53 263.94   Q 320.09 256.38 319.94 248.72   Q 332.56 254.89 345.42 259.01   Z"/>
<path xmlns="http://www.w3.org/2000/svg" fill="#7daa59" d="   M 382.96 286.72   Q 397.40 312.21 422.33 328.68   L 399.20 337.00   Q 385.80 327.90 377.04 317.46   Q 368.84 307.68 358.88 292.07   L 382.96 286.72   Z"/>
<path xmlns="http://www.w3.org/2000/svg" fill="#639b5b" d="   M 422.33 328.68   Q 434.86 337.16 448.98 342.45   Q 462.90 347.67 478.21 348.83   Q 495.68 350.16 513.20 347.11   Q 517.35 346.38 521.07 345.39   Q 527.60 344.67 533.89 342.50   A 0.39 0.38 -10.1 0 1 534.40 342.85   C 534.49 346.16 531.23 348.43 528.49 349.74   C 521.31 353.18 510.83 357.18 501.46 358.50   Q 484.82 360.84 469.22 361.23   Q 460.17 361.45 453.03 360.07   Q 441.87 357.91 437.09 356.62   Q 436.41 356.43 428.41 353.36   Q 423.64 351.53 420.10 349.35   C 416.84 347.34 412.77 345.89 408.95 343.50   Q 403.99 340.39 399.20 337.00   L 422.33 328.68   Z"/>
<path xmlns="http://www.w3.org/2000/svg" fill="#3f8286" d="   M 401.76 361.20   Q 407.59 366.04 414.24 369.74   C 429.38 378.19 445.62 384.61 462.99 386.27   Q 495.09 389.32 526.10 378.59   C 544.82 372.10 561.97 360.67 576.55 347.28   Q 574.15 350.30 571.14 352.88   Q 558.60 363.66 545.94 370.40   C 540.68 373.20 537.88 375.01 533.15 376.87   Q 530.29 378.00 523.28 380.57   C 519.45 381.97 516.53 382.38 512.81 383.63   Q 511.19 384.17 505.52 384.99   Q 500.62 385.70 498.25 386.49   A 2.74 2.68 -51.7 0 1 497.25 386.62   C 496.75 386.59 495.84 386.80 494.15 386.88   Q 494.03 386.88 494.17 386.90   C 503.53 388.03 509.77 388.23 517.66 386.69   C 534.13 383.47 550.35 378.05 565.62 370.52   C 569.97 368.38 575.58 363.55 579.61 361.19   A 21.97 21.97 0.0 0 1 582.41 359.79   Q 588.57 357.22 589.54 356.31   Q 593.00 353.09 596.77 350.33   C 575.98 377.14 545.90 396.50 512.67 404.83   Q 508.75 405.81 493.24 408.47   Q 490.67 408.91 475.24 409.22   C 435.53 410.01 398.20 394.70 369.78 367.20   C 362.04 359.71 353.72 351.02 347.91 341.60   C 359.62 348.13 370.65 349.50 382.75 352.26   Q 391.12 354.17 401.76 361.20   Z"/>
</g></g></g></g></svg>